<svg id="Capa_1" data-name="Capa 1" xmlns="http://www.w3.org/2000/svg" viewBox="0 0 145.77 41.1"><defs><style>.cls-1{fill:#fff;}</style></defs><title>logo</title><path class="cls-1" d="M9.54,11.87a21.57,21.57,0,0,0-2.9,4.5l9,9-9,9a21.57,21.57,0,0,0,2.9,4.5L23,25.37Z" transform="translate(-4.66 -4.77)"/><path class="cls-1" d="M5.94,18.07a21.25,21.25,0,0,0,0,14.5l7.3-7.3Z" transform="translate(-4.66 -4.77)"/><path class="cls-1" d="M22,45.87l3.4-3.4,3.4,3.4a19.27,19.27,0,0,0,5.6-1.8l-9-9-9,9a19.27,19.27,0,0,0,5.6,1.8" transform="translate(-4.66 -4.77)"/><path class="cls-1" d="M28.84,4.77l-3.4,3.4L22,4.77a19.27,19.27,0,0,0-5.6,1.8l9,9,9-9a19.27,19.27,0,0,0-5.6-1.8" transform="translate(-4.66 -4.77)"/><path class="cls-1" d="M36,7.37,25.44,18,14.84,7.37a18.13,18.13,0,0,0-4.1,3.2l14.7,14.7h0l-14.7,14.8a24,24,0,0,0,4.1,3.2l10.6-10.6L36,43.27a18.13,18.13,0,0,0,4.1-3.2l-14.7-14.7h0l14.7-14.7A18.57,18.57,0,0,0,36,7.37" transform="translate(-4.66 -4.77)"/><path class="cls-1" d="M41.34,38.77a21.57,21.57,0,0,0,2.9-4.5l-9-9,9-9a21.57,21.57,0,0,0-2.9-4.5l-13.5,13.6Z" transform="translate(-4.66 -4.77)"/><path class="cls-1" d="M44.94,32.57a21.25,21.25,0,0,0,0-14.5l-7.3,7.3Z" transform="translate(-4.66 -4.77)"/><path class="cls-1" d="M54.94,15.57H65c2.2,0,3.8.5,4.9,1.6a5.76,5.76,0,0,1,1.6,4.5,5.88,5.88,0,0,1-1.8,4.6,7.87,7.87,0,0,1-5.5,1.7H61v7.3h-6.1Zm6.1,8.3h1.5a4,4,0,0,0,2.5-.6,1.86,1.86,0,0,0,.7-1.6,2.45,2.45,0,0,0-.6-1.6,3.34,3.34,0,0,0-2.3-.6H61Z" transform="translate(-4.66 -4.77)"/><path class="cls-1" d="M73.34,15.57h9a10.44,10.44,0,0,1,4.3.7,7.05,7.05,0,0,1,2.7,2.1,11.39,11.39,0,0,1,1.6,3.1,15.83,15.83,0,0,1,.5,3.8,13,13,0,0,1-.7,4.9,7.54,7.54,0,0,1-2,2.9,6.9,6.9,0,0,1-2.7,1.6,12,12,0,0,1-3.6.5h-9V15.57Zm6.1,4.4v10.7h1.5a5.83,5.83,0,0,0,2.7-.4,3.24,3.24,0,0,0,1.3-1.5,9,9,0,0,0,.5-3.4c0-2.1-.3-3.5-1-4.3a4.25,4.25,0,0,0-3.4-1.2h-1.6Z" transform="translate(-4.66 -4.77)"/><polygon class="cls-1" points="85.88 10.8 92.28 10.8 96.67 24.9 101.08 10.8 107.17 10.8 99.88 30.4 93.38 30.4 85.88 10.8"/><path class="cls-1" d="M111.34,28.67l5.8-.4a3.71,3.71,0,0,0,.8,2.1,3.16,3.16,0,0,0,2.7,1.2,3,3,0,0,0,2-.6,1.75,1.75,0,0,0,0-2.8,6.93,6.93,0,0,0-3.1-1.1,12.75,12.75,0,0,1-5.7-2.4,5,5,0,0,1-1.7-3.8A5.21,5.21,0,0,1,113,18a6.07,6.07,0,0,1,2.6-2.1,12.61,12.61,0,0,1,4.8-.8,10,10,0,0,1,5.7,1.4,6.22,6.22,0,0,1,2.4,4.5l-5.7.3a3.14,3.14,0,0,0-1-1.9,3.17,3.17,0,0,0-2-.6,2.54,2.54,0,0,0-1.6.4,1.27,1.27,0,0,0-.5,1.1.91.91,0,0,0,.4.8,4.44,4.44,0,0,0,2,.7,31.43,31.43,0,0,1,5.7,1.7,6,6,0,0,1,2.5,2.2,5.74,5.74,0,0,1,.8,2.9,6.25,6.25,0,0,1-3.9,5.9,12.8,12.8,0,0,1-4.7.8c-3.3,0-5.7-.6-6.9-1.9a6.46,6.46,0,0,1-2.3-4.7" transform="translate(-4.66 -4.77)"/><path class="cls-1" d="M143.14,32h-6.9l-1,3.2H129l7.4-19.6H143l7.4,19.6H144Zm-1.3-4.3-2.2-7.1-2.1,7.1Z" transform="translate(-4.66 -4.77)"/><polygon class="cls-1" points="20.77 30.4 19.98 31.2 21.57 31.2 20.77 30.4"/><polygon class="cls-1" points="20.77 37.8 21.57 37 19.98 37 20.77 37.8"/></svg>