<svg id="Capa_1" data-name="Capa 1" xmlns="http://www.w3.org/2000/svg" viewBox="0 0 145.74 41.1"><defs><style>.cls-1{fill:#d51c28;}</style></defs><title>logored</title><path class="cls-1" d="M7.71,9.93a22,22,0,0,0-2.9,4.5l9,9-9,9a21.48,21.48,0,0,0,2.9,4.5l13.46-13.5Z" transform="translate(-2.84 -2.83)"/><path class="cls-1" d="M4.11,16.13a21.25,21.25,0,0,0,0,14.5l7.3-7.3Z" transform="translate(-2.84 -2.83)"/><path class="cls-1" d="M20.17,43.93l3.4-3.4,3.4,3.4a19.31,19.31,0,0,0,5.6-1.8l-9-9-9,9a19.41,19.41,0,0,0,5.6,1.8" transform="translate(-2.84 -2.83)"/><path class="cls-1" d="M27,2.83l-3.4,3.4-3.44-3.4a19.41,19.41,0,0,0-5.6,1.8l9,9,9-9A19.31,19.31,0,0,0,27,2.83" transform="translate(-2.84 -2.83)"/><path class="cls-1" d="M34.17,5.43,23.61,16.06,13,5.43a18.42,18.42,0,0,0-4.1,3.2l14.7,14.7h0L8.91,38.13a23.92,23.92,0,0,0,4.1,3.2l10.6-10.6,10.56,10.6a17.91,17.91,0,0,0,4.1-3.2l-14.7-14.7h0l14.7-14.7a18.4,18.4,0,0,0-4.1-3.3" transform="translate(-2.84 -2.83)"/><path class="cls-1" d="M39.51,36.83a21.09,21.09,0,0,0,2.9-4.5l-9-9,9-9a21.6,21.6,0,0,0-2.9-4.5L26,23.43Z" transform="translate(-2.84 -2.83)"/><path class="cls-1" d="M43.11,30.63a21.25,21.25,0,0,0,0-14.5l-7.3,7.3Z" transform="translate(-2.84 -2.83)"/><path class="cls-1" d="M53.11,13.63H63.17c2.2,0,3.8.5,4.9,1.6a5.77,5.77,0,0,1,1.6,4.5,5.85,5.85,0,0,1-1.8,4.6,7.87,7.87,0,0,1-5.5,1.7h-3.2v7.3h-6.1Zm6.1,8.3h1.5a4,4,0,0,0,2.5-.6,1.83,1.83,0,0,0,.7-1.6,2.43,2.43,0,0,0-.6-1.6,3.36,3.36,0,0,0-2.3-.6H59.17Z" transform="translate(-2.84 -2.83)"/><path class="cls-1" d="M71.51,13.63h9a10.52,10.52,0,0,1,4.3.7,7,7,0,0,1,2.7,2.1,11.41,11.41,0,0,1,1.6,3.1,15.72,15.72,0,0,1,.5,3.8,13,13,0,0,1-.7,4.9,7.49,7.49,0,0,1-2,2.9,6.81,6.81,0,0,1-2.7,1.6,11.86,11.86,0,0,1-3.6.5h-9V13.63Zm6.1,4.4v10.7h1.5a5.78,5.78,0,0,0,2.7-.4,3.17,3.17,0,0,0,1.3-1.5,9.12,9.12,0,0,0,.5-3.4c0-2.1-.3-3.5-1-4.3a4.28,4.28,0,0,0-3.4-1.2h-1.6Z" transform="translate(-2.84 -2.83)"/><polygon class="cls-1" points="85.88 10.8 92.28 10.8 96.67 24.9 101.08 10.8 107.17 10.8 99.88 30.4 93.38 30.4 85.88 10.8"/><path class="cls-1" d="M109.51,26.73l5.8-.4a3.66,3.66,0,0,0,.8,2.1,3.18,3.18,0,0,0,2.7,1.2,3,3,0,0,0,2-.6,1.75,1.75,0,0,0,.35-2.45,1.93,1.93,0,0,0-.35-.35,6.89,6.89,0,0,0-3.1-1.1,12.72,12.72,0,0,1-5.7-2.4,5,5,0,0,1-1.7-3.8,5.22,5.22,0,0,1,.86-2.87,6.06,6.06,0,0,1,2.6-2.1,12.65,12.65,0,0,1,4.8-.8,10.08,10.08,0,0,1,5.7,1.4,6.22,6.22,0,0,1,2.4,4.5l-5.7.3a3.14,3.14,0,0,0-1-1.9,3.17,3.17,0,0,0-2-.6,2.53,2.53,0,0,0-1.6.4,1.27,1.27,0,0,0-.5,1.1.93.93,0,0,0,.4.8,4.49,4.49,0,0,0,2,.7,32.22,32.22,0,0,1,5.7,1.7,6,6,0,0,1,2.5,2.2,5.7,5.7,0,0,1,.8,2.9,6.23,6.23,0,0,1-3.9,5.9,12.77,12.77,0,0,1-4.7.8c-3.3,0-5.7-.6-6.9-1.9a6.48,6.48,0,0,1-2.3-4.7" transform="translate(-2.84 -2.83)"/><path class="cls-1" d="M141.31,30.06h-6.9l-1,3.2h-6.24l7.4-19.6h6.6l7.4,19.6h-6.4Zm-1.3-4.3-2.2-7.1-2.1,7.1Z" transform="translate(-2.84 -2.83)"/><polygon class="cls-1" points="20.77 30.4 19.98 31.2 21.57 31.2 20.77 30.4"/><polygon class="cls-1" points="20.77 37.8 21.57 37 19.98 37 20.77 37.8"/></svg>